Coordinates
version=1
nRows=14
nColumns=46
inDegrees=yes

Units are S.I. units (second, meters, Newtons, ...)
Angles are in degrees.

endheader
time	pelvis_tilt	pelvis_list	pelvis_rotation	pelvis_tx	pelvis_ty	pelvis_tz	bb_angle	bb_tx	bb_ty	bb_tz	hip_flexion_r	hip_adduction_r	hip_rotation_r	knee_angle_r	knee_angle_r_beta	ankle_angle_r	subtalar_angle_r	mtp_angle_r	crank_angle_r	hip_flexion_l	hip_adduction_l	hip_rotation_l	knee_angle_l	knee_angle_l_beta	ankle_angle_l	subtalar_angle_l	mtp_angle_l	crank_angle_l	lumbar_extension	lumbar_bending	lumbar_rotation	arm_flex_r	arm_add_r	arm_rot_r	elbow_flex_r	pro_sup_r	wrist_flex_r	wrist_dev_r	arm_flex_l	arm_add_l	arm_rot_l	elbow_flex_l	pro_sup_l	wrist_flex_l	wrist_dev_l
      5.00000000	    -26.53437633	     -4.35593734	     18.73062305	      0.45241411	      1.17160122	     -0.21178366	      0.00000000	      0.50000000	      0.00000000	      0.25000000	     37.29805650	     -5.24492070	     -6.72084116	     55.87978154	      0.97528617	    -34.16400294	    -11.58550554	      0.00000000	      0.00000000	     65.15264979	      3.52789060	     10.65738026	     68.16447492	      1.18969452	     11.84439175	      2.63508749	      0.00000000	      0.00000000	    -55.85047049	      3.21908577	    -24.17388680	     62.91578436	     -3.09336378	     50.84121027	     38.85192711	     57.73575508	      0.00000000	      0.00000000	     42.51685990	    -43.71819043	     18.86763306	     95.14459890	     54.26353676	      0.00000000	      0.00000000
      5.00500000	    -25.99989488	     -5.01727387	     18.77455181	      0.45279286	      1.17145403	     -0.21219114	      0.00000000	      0.50000000	      0.00000000	      0.25000000	     38.00937821	     -4.56134997	     -6.82646415	     58.31031375	      1.01770696	    -34.04930951	    -11.74955318	      0.00000000	      0.00000000	     63.72164604	      3.00250093	     11.33686965	     65.92180857	      1.15055261	     10.76425387	      2.75907511	      0.00000000	      0.00000000	    -56.15318841	      3.95008299	    -23.75361172	     63.15131955	     -2.87124935	     50.98009111	     38.77533023	     57.74243404	      0.00000000	      0.00000000	     42.19511932	    -43.96380806	     18.69003812	     95.34114684	     54.27697089	      0.00000000	      0.00000000
      5.01000000	    -25.58856355	     -5.73055647	     18.51784142	      0.45340818	      1.17081603	     -0.21291759	      0.00000000	      0.50000000	      0.00000000	      0.25000000	     38.86631418	     -3.75127327	     -6.83194068	     60.75518464	      1.06037801	    -33.63624075	    -11.93491617	      0.00000000	      0.00000000	     62.36331094	      2.27463428	     11.96181469	     63.71952600	      1.11211553	      9.66063213	      2.69131299	      0.00000000	      0.00000000	    -56.34920735	      4.52567592	    -23.24450449	     63.38600731	     -2.67022205	     51.20384674	     38.65571540	     57.75869304	      0.00000000	      0.00000000	     41.64756377	    -44.14932202	     18.33768426	     95.50993712	     54.27274495	      0.00000000	      0.00000000
      5.01500000	    -25.09839900	     -6.26029300	     18.41770247	      0.45349679	      1.17008207	     -0.21362672	      0.00000000	      0.50000000	      0.00000000	      0.25000000	     39.65328646	     -3.25419927	     -7.00098110	     63.34276402	      1.10553979	    -32.88107402	    -11.97392006	      0.00000000	      0.00000000	     60.80995274	      1.83188249	     12.71669274	     61.36421712	      1.07100763	      8.35758519	      2.25957463	      0.00000000	      0.00000000	    -56.71839364	      5.53931549	    -25.22668009	     65.62766172	      0.40664561	     55.44071589	     35.26055505	     57.94234923	      0.00000000	      0.00000000	     35.51483805	    -46.69461638	     11.74780100	     99.28570797	     54.21982166	      0.00000000	      0.00000000
      5.02000000	    -24.70795091	     -6.95891017	     17.97234865	      0.45399304	      1.16895537	     -0.21407724	      0.00000000	      0.50000000	      0.00000000	      0.25000000	     40.55227499	     -2.42020556	     -7.09608918	     65.83572889	      1.14905023	    -32.05272168	    -12.39689704	      0.00000000	      0.00000000	     59.35592931	      0.96988657	     13.42313674	     59.05796709	      1.03075598	      7.23452059	      2.22085651	      0.00000000	      0.00000000	    -56.84239380	      6.00260986	    -24.43795655	     65.80168367	      0.50156971	     55.48326219	     35.23093344	     57.93736173	      0.00000000	      0.00000000	     35.13701054	    -46.76360426	     11.61364181	     99.19165658	     54.19457843	      0.00000000	      0.00000000
      5.02500000	    -24.41083762	     -7.35086286	     17.45192665	      0.45398323	      1.16752249	     -0.21493790	      0.00000000	      0.50000000	      0.00000000	      0.25000000	     41.56598719	     -1.94341287	     -7.00215029	     68.53071801	      1.19608667	    -30.80994987	    -12.42482886	      0.00000000	      0.00000000	     57.83554923	      0.39497284	     13.97269859	     56.70350515	      0.98966286	      5.56886465	      1.21232837	      0.00000000	      0.00000000	    -57.01247640	      6.51930007	    -25.26831583	     67.07572445	      2.22644061	     58.08601466	     33.52411398	     58.02516637	      0.00000000	      0.00000000	     30.91781429	    -47.93180052	      7.21012669	    101.15726525	     54.03573335	      0.00000000	      0.00000000
      5.03000000	    -23.96464596	     -8.15931819	     16.88259719	      0.45403990	      1.16582619	     -0.21561068	      0.00000000	      0.50000000	      0.00000000	      0.25000000	     42.46659906	     -1.00072400	     -7.21782109	     71.03450628	      1.23978602	    -29.75941852	    -12.99420003	      0.00000000	      0.00000000	     56.37101684	     -0.62866054	     14.70231687	     54.54406202	      0.95197347	      4.56585899	      1.05133728	      0.00000000	      0.00000000	    -56.97237779	      6.63857022	    -24.39627334	     66.95280969	      2.21006568	     58.16637492	     33.43838545	     58.02505259	      0.00000000	      0.00000000	     30.62213142	    -47.95210413	      7.29395473	    101.05551062	     54.03235560	      0.00000000	      0.00000000
      5.03500000	    -23.90924608	     -8.54034851	     15.97193406	      0.45420520	      1.16406583	     -0.21587318	      0.00000000	      0.50000000	      0.00000000	      0.25000000	     43.74473227	     -0.35937125	     -6.93470522	     73.67482027	      1.28586819	    -28.22691249	    -13.24774986	      0.00000000	      0.00000000	     54.98312690	     -1.68083054	     14.52052015	     52.09854258	      0.90929110	      2.68044311	     -0.01297793	      0.00000000	      0.00000000	    -56.82823111	      6.57759734	    -23.62954556	     67.10879702	      2.13606954	     58.39771912	     33.36163043	     58.04443258	      0.00000000	      0.00000000	     30.09896128	    -48.02989334	      7.32302449	    100.87642444	     54.01183365	      0.00000000	      0.00000000
      5.04000000	    -23.93223566	     -9.05347317	     14.93094634	      0.45411237	      1.16143350	     -0.21673419	      0.00000000	      0.50000000	      0.00000000	      0.25000000	     45.18188312	      0.38046187	     -6.64443812	     76.40479785	      1.33351529	    -26.45621873	    -13.19640754	      0.00000000	      0.00000000	     53.76585878	     -2.48059941	     15.01454558	     50.13919977	      0.87509412	      1.21905369	     -1.73309371	      0.00000000	      0.00000000	    -56.54989991	      6.69330773	    -22.88053551	     67.37335185	      2.15342910	     59.12962258	     33.38996828	     58.16677093	      0.00000000	      0.00000000	     29.11969936	    -48.19694980	      6.77460701	    100.89480098	     53.96913625	      0.00000000	      0.00000000
      5.04500000	    -23.94222957	     -9.66786516	     13.76680609	      0.45430309	      1.15917893	     -0.21695827	      0.00000000	      0.50000000	      0.00000000	      0.25000000	     46.54202666	      1.49476700	     -6.25424367	     78.90913993	      1.37722430	    -24.75313749	    -13.49212387	      0.00000000	      0.00000000	     52.48880390	     -3.74805614	     15.04111772	     48.02622837	      0.83821581	     -0.15168201	     -2.75937973	      0.00000000	      0.00000000	    -56.32819224	      6.76859918	    -21.87105250	     67.61932650	      2.12009694	     59.69523108	     33.48243102	     58.27440849	      0.00000000	      0.00000000	     27.95320252	    -48.44784442	      5.84737775	    100.92348327	     53.90094208	      0.00000000	      0.00000000
      5.05000000	    -23.85818102	    -10.33383963	     12.70002800	      0.45431526	      1.15679521	     -0.21751359	      0.00000000	      0.50000000	      0.00000000	      0.25000000	     47.82288471	      2.49216174	     -6.14830920	     81.44477542	      1.42147949	    -22.91796799	    -13.93063956	      0.00000000	      0.00000000	     51.17013702	     -4.96792088	     15.29514284	     46.10726477	      0.80472358	     -1.31400290	     -3.35822954	      0.00000000	      0.00000000	    -56.20360596	      7.02827600	    -20.85422237	     67.85475863	      2.12743565	     60.02333454	     33.56567229	     58.34219883	      0.00000000	      0.00000000	     26.97093000	    -48.65736142	      5.41730963	    100.87229731	     53.86883543	      0.00000000	      0.00000000
      5.05500000	    -23.92147133	    -10.93053107	     11.44716665	      0.45434295	      1.15451049	     -0.21799770	      0.00000000	      0.50000000	      0.00000000	      0.25000000	     49.23965172	      3.59093446	     -5.78264272	     83.87125242	      1.46382950	    -21.01784039	    -14.11294273	      0.00000000	      0.00000000	     49.83472536	     -6.26916664	     15.32339028	     44.06871919	      0.76914425	     -2.52477832	     -4.09171783	      0.00000000	      0.00000000	    -55.99011348	      7.16380321	    -19.87701377	     68.15042505	      2.16556667	     60.45476885	     33.76097207	     58.44683994	      0.00000000	      0.00000000	     25.81332149	    -48.90437988	      4.85867955	    100.81868685	     53.82747124	      0.00000000	      0.00000000
      5.06000000	    -24.17378537	    -11.24285870	      9.95115525	      0.45432998	      1.15212961	     -0.21851836	      0.00000000	      0.50000000	      0.00000000	      0.25000000	     50.87294393	      4.49490669	     -5.10556113	     86.38038282	      1.50762209	    -18.90329066	    -13.47575114	      0.00000000	      0.00000000	     48.49550508	     -7.47816015	     14.97119664	     42.02018278	      0.73339054	     -3.85210520	     -5.06737954	      0.00000000	      0.00000000	    -55.65990354	      6.97539162	    -19.31828869	     68.58013573	      2.22872688	     61.49716812	     34.25809362	     58.67878466	      0.00000000	      0.00000000	     23.85983470	    -49.21467723	      3.37831975	    101.08459025	     53.74296099	      0.00000000	      0.00000000
      5.06500000	    -24.14771047	    -11.80804048	      8.74042283	      0.45376280	      1.15016221	     -0.21942983	      0.00000000	      0.50000000	      0.00000000	      0.25000000	     52.23622216	      5.48282769	     -4.89569762	     88.68732058	      1.54788575	    -17.05324321	    -13.59805656	      0.00000000	      0.00000000	     47.01112181	     -8.71406421	     15.01928036	     40.03317428	      0.69871070	     -5.10233007	     -5.58723617	      0.00000000	      0.00000000	    -55.89173295	      7.48724312	    -20.25361203	     70.73946722	      3.51291016	     66.60039456	     33.86713647	     59.52776257	      0.00000000	      0.00000000	     16.78515216	    -50.31710638	     -3.81214073	    104.12110181	     53.65281733	      0.00000000	      0.00000000
